<?xml version="1.0" standalone="no"?>
<!DOCTYPE svg PUBLIC "-//W3C//DTD SVG 20010904//EN"
 "http://www.w3.org/TR/2001/REC-SVG-20010904/DTD/svg10.dtd">
<svg version="1.0" xmlns="http://www.w3.org/2000/svg"
 width="874.000000pt" height="289.000000pt" viewBox="0 0 874.000000 289.000000"
 preserveAspectRatio="xMidYMid meet">

<g transform="translate(0.000000,289.000000) scale(0.100000,-0.100000)"
fill="#000000" stroke="none">
<path d="M2365 2320 c-54 -10 -95 -27 -95 -40 0 -6 -4 -9 -9 -6 -13 8 -92 -56
-154 -125 -103 -116 -228 -364 -285 -567 l-27 -94 -65 6 c-36 3 -116 9 -178
13 -109 6 -114 7 -108 27 3 12 25 91 49 176 70 245 114 339 196 417 42 41 43
43 14 29 -17 -9 -35 -20 -38 -26 -4 -6 -11 -7 -17 -4 -7 4 -8 2 -4 -4 4 -7 -3
-17 -18 -24 -14 -6 -26 -16 -26 -21 0 -6 -3 -7 -7 -3 -4 4 3 16 17 27 l25 20
-32 -16 c-22 -10 -33 -23 -34 -38 0 -19 -1 -20 -8 -4 -6 16 -9 16 -18 5 -23
-29 -105 -207 -123 -268 -10 -36 -33 -105 -49 -155 -17 -49 -33 -102 -35 -116
-5 -24 -12 -27 -83 -39 -94 -15 -143 -34 -143 -54 0 -20 33 -20 125 -1 38 8
73 15 77 15 4 0 -3 -30 -16 -67 -13 -38 -43 -126 -66 -198 -73 -226 -173 -393
-293 -493 -92 -76 -120 -87 -227 -87 -111 0 -144 13 -213 81 -78 76 -112 186
-95 302 15 97 66 165 158 213 38 20 60 24 140 24 52 0 112 -3 134 -7 33 -5 37
-4 24 8 -32 32 -199 35 -270 6 -16 -6 -28 -8 -28 -4 0 4 -4 2 -8 -3 -12 -18
-62 -46 -71 -41 -5 3 -27 -14 -49 -38 -41 -44 -73 -94 -53 -82 7 5 9 1 5 -8
-3 -9 -10 -16 -14 -16 -18 0 -32 -75 -28 -149 5 -89 30 -151 84 -210 94 -105
243 -143 417 -106 125 26 261 121 353 247 50 67 123 243 173 418 69 237 56
215 134 218 68 3 264 -11 272 -20 3 -2 -2 -27 -9 -54 -54 -182 -71 -410 -41
-527 46 -176 173 -286 342 -295 40 -2 88 1 110 8 50 16 109 54 123 80 8 15 0
12 -34 -14 -54 -41 -90 -50 -160 -42 -168 21 -263 173 -273 436 -3 96 0 150
15 235 26 143 35 165 67 165 16 0 25 6 25 15 0 9 -9 15 -25 15 -14 0 -25 4
-25 8 0 19 102 298 148 404 27 62 74 155 106 206 100 161 192 231 291 220 24
-3 42 -2 39 3 -3 5 -11 9 -19 9 -7 0 -15 6 -18 13 -3 9 -8 8 -22 -3 -11 -9
-16 -10 -11 -2 4 6 6 11 4 11 -2 -1 -21 -5 -43 -9z m-105 -59 c0 -5 -7 -12
-16 -15 -14 -5 -15 -4 -4 9 14 17 20 19 20 6z m-80 -64 c0 -2 -10 -12 -22 -23
l-23 -19 19 23 c18 21 26 27 26 19z"/>
<path d="M6327 2301 c-27 -9 -47 -19 -45 -22 6 -12 -26 -39 -41 -35 -9 3 -29
-7 -46 -21 -28 -24 -28 -25 -3 -9 39 23 45 20 18 -9 -42 -45 -12 -38 42 9 56
49 138 86 191 86 24 0 28 3 17 10 -21 14 -77 10 -133 -9z"/>
<path d="M6245 2260 c-3 -5 -1 -10 4 -10 6 0 11 5 11 10 0 6 -2 10 -4 10 -3 0
-8 -4 -11 -10z"/>
<path d="M1100 2214 c-165 -17 -327 -102 -399 -210 -94 -142 -93 -352 1 -459
59 -68 187 -92 295 -57 61 20 136 86 159 140 25 60 30 156 10 187 -9 14 -20
25 -24 25 -4 0 -7 -33 -8 -73 -1 -77 -26 -151 -67 -196 -33 -36 -115 -71 -167
-71 -120 0 -233 162 -216 309 14 116 108 252 212 304 102 51 152 62 274 61
116 0 163 -10 274 -58 60 -27 39 3 -25 36 -88 44 -226 71 -319 62z"/>
<path d="M4993 2195 c-139 -39 -275 -140 -335 -251 -36 -67 -52 -159 -39 -229
10 -52 35 -115 47 -115 3 0 2 5 -1 10 -3 6 -1 10 5 10 7 0 9 -8 5 -19 -14 -45
134 -120 214 -107 117 19 192 63 235 138 16 27 10 23 -31 -21 -29 -29 -56 -50
-62 -47 -5 4 -13 1 -17 -5 -5 -8 -3 -9 6 -4 9 5 11 4 6 -4 -4 -6 -11 -9 -16
-6 -4 3 -24 -2 -44 -10 -45 -19 -129 -19 -164 -1 -99 52 -143 215 -92 347 10
29 17 56 14 61 -3 4 -1 8 4 8 5 0 22 20 37 45 47 73 144 140 249 170 85 25
224 16 331 -20 44 -15 85 -31 90 -35 6 -4 24 -10 40 -14 59 -14 10 13 -110 60
-111 44 -128 48 -220 51 -66 2 -118 -2 -152 -12z m-237 -174 c8 7 14 7 14 1 0
-5 -7 -13 -16 -16 -8 -3 -12 -10 -9 -16 3 -5 1 -10 -5 -10 -6 0 -8 -4 -5 -10
3 -5 1 -10 -5 -10 -7 0 -9 8 -5 21 6 19 5 20 -8 8 -8 -8 -13 -17 -11 -21 2 -4
0 -9 -6 -13 -6 -4 -7 -11 -4 -17 4 -7 2 -8 -4 -4 -8 5 -12 -1 -12 -16 -1 -21
-2 -21 -11 -5 -8 14 -7 22 8 35 10 9 19 24 21 32 5 23 36 54 40 40 3 -8 8 -8
18 1z m-44 -103 c-7 -7 -12 -20 -12 -31 0 -10 -4 -16 -10 -12 -10 6 -2 36 14
47 17 12 21 9 8 -4z m-63 -90 c0 -40 -3 -65 -7 -56 -7 17 -4 128 4 128 2 0 4
-33 3 -72z"/>
<path d="M6094 2137 c-83 -87 -112 -130 -180 -274 -62 -130 -124 -312 -124
-363 0 -22 -2 -23 -62 -16 -35 3 -116 9 -181 13 -114 6 -118 7 -112 27 35 120
65 251 61 262 -3 8 0 14 5 14 7 0 9 11 7 25 -3 13 -1 22 3 19 5 -3 9 3 9 13 0
10 3 29 5 43 3 14 3 19 -1 12 -3 -6 -10 -9 -15 -6 -6 3 -8 -5 -6 -18 2 -12 2
-17 0 -10 -9 24 -25 12 -19 -15 5 -28 5 -28 -9 2 -12 26 -20 27 -16 3 0 -5 -3
-8 -8 -8 -5 0 -8 -8 -7 -17 2 -14 -20 -73 -28 -73 -2 0 -2 12 0 28 8 60 -55
-160 -81 -284 -4 -18 -20 -26 -92 -43 -49 -12 -99 -29 -113 -36 -24 -14 -24
-14 21 -15 25 0 69 7 98 16 29 8 54 14 56 12 6 -6 -34 -148 -65 -229 -113
-293 -228 -473 -360 -564 -41 -28 -49 -30 -139 -30 -110 0 -161 20 -205 77
-51 68 -76 196 -61 313 6 48 13 64 47 101 22 24 35 44 29 44 -6 0 -11 -4 -11
-10 0 -5 -9 -10 -19 -10 -37 0 -78 -97 -88 -205 -11 -138 47 -256 155 -312
144 -75 321 -43 481 85 87 70 133 133 207 287 58 120 74 169 142 430 l8 30
120 -2 c65 -1 142 -5 171 -8 l51 -6 -9 -32 c-18 -68 -59 -333 -59 -382 0 -49
31 -170 63 -247 9 -20 34 -57 58 -82 46 -51 143 -111 160 -100 6 3 14 2 18 -4
6 -11 47 -16 96 -13 29 2 29 3 7 12 -13 5 -28 7 -32 4 -5 -3 -11 1 -13 7 -4
10 -6 10 -6 1 -1 -7 -9 -13 -18 -13 -15 0 -16 2 -3 10 13 8 12 10 -4 10 -10 0
-27 10 -37 22 -12 13 -19 16 -19 8 0 -18 -11 -6 -15 17 -2 10 -4 20 -4 22 -1
2 -9 -3 -18 -10 -14 -11 -14 -8 2 11 11 14 16 22 11 18 -14 -12 -73 111 -102
212 -25 87 -26 99 -21 263 7 227 8 231 76 267 30 16 32 19 14 20 -34 0 -30 43
16 180 21 63 36 117 32 120 -12 10 -6 35 10 42 20 8 62 95 55 113 -2 8 2 16
11 19 9 4 13 13 9 22 -3 8 -2 12 4 9 14 -9 32 34 26 61 -4 14 -2 24 4 24 7 0
8 6 0 19 -13 26 -13 32 3 29 6 -2 11 3 10 9 -2 7 11 26 29 43 17 17 29 32 26
35 -2 2 -27 -19 -54 -48z m-149 -1517 c3 -6 -1 -7 -9 -4 -18 7 -21 14 -7 14 6
0 13 -4 16 -10z"/>
<path d="M5627 2157 c-15 -12 -30 -35 -33 -52 l-5 -30 45 44 c25 24 43 48 40
53 -8 12 -17 10 -47 -15z"/>
<path d="M6170 2160 c0 -5 5 -10 11 -10 5 0 7 5 4 10 -3 6 -8 10 -11 10 -2 0
-4 -4 -4 -10z"/>
<path d="M3210 2054 c-22 -20 -38 -40 -35 -44 3 -4 -1 -10 -9 -13 -32 -12
-100 -165 -142 -314 -19 -70 -50 -168 -68 -218 -18 -49 -46 -133 -61 -185 -29
-97 -98 -221 -150 -270 -26 -24 -27 -25 -41 -6 -8 11 -14 28 -14 39 0 19 40
137 129 381 28 76 48 142 45 147 -3 5 -18 9 -34 9 -24 0 -30 -6 -42 -42 -17
-51 -33 -59 -41 -19 -4 17 -16 40 -28 52 -18 18 -28 20 -63 15 -125 -21 -252
-169 -306 -361 -16 -59 -29 -81 -81 -138 -95 -105 -154 -124 -203 -66 -25 29
-27 37 -24 116 l3 86 65 21 c79 27 103 40 154 79 90 71 120 168 73 238 -19 28
-30 35 -64 37 -120 9 -291 -170 -323 -338 -38 -201 26 -334 151 -314 60 10
151 75 191 137 l33 52 6 -51 c20 -164 142 -194 236 -57 l38 56 6 -60 c7 -76
12 -83 56 -83 50 0 95 33 140 104 l38 58 3 -33 c7 -89 30 -119 94 -119 51 0
88 24 147 96 45 57 61 61 61 16 0 -55 20 -102 46 -108 60 -15 120 16 166 86
21 33 29 23 18 -25 -11 -49 -7 -55 35 -55 l34 0 32 102 c42 137 146 348 210
425 53 64 74 78 104 67 29 -12 14 -84 -58 -274 -72 -193 -82 -233 -73 -285 10
-51 41 -63 102 -40 59 23 117 106 138 200 4 20 -5 8 -29 -35 -37 -67 -90 -130
-111 -130 -37 0 -26 49 70 303 64 170 72 234 34 282 -18 24 -26 27 -61 22 -51
-7 -98 -45 -164 -133 -29 -38 -57 -70 -62 -72 -5 -2 -3 15 5 37 16 48 33 149
26 156 -12 12 -92 4 -106 -11 -22 -21 -20 -25 9 -18 16 4 25 2 25 -6 0 -18
-110 -340 -128 -375 -8 -16 -39 -63 -69 -103 -42 -58 -59 -73 -76 -70 -19 3
-22 10 -25 60 -3 61 13 123 94 365 24 73 44 137 44 143 0 7 -24 10 -67 8 -55
-2 -68 -6 -71 -20 -3 -14 3 -18 22 -18 l26 0 -29 -58 c-16 -31 -41 -98 -56
-147 -52 -176 -64 -199 -150 -293 -45 -50 -61 -56 -85 -32 -37 37 -27 100 50
331 38 114 74 228 80 251 6 24 34 113 62 198 54 163 71 237 56 246 -8 5 33 44
47 44 4 0 4 -17 0 -37 -8 -47 -1 -41 13 10 9 33 9 37 -9 37 -10 0 -37 -16 -59
-36z m-926 -500 c22 -57 -5 -139 -67 -202 -38 -40 -122 -92 -147 -92 -35 0 41
178 106 250 52 57 96 75 108 44z m422 -12 c27 -18 33 -48 20 -100 -15 -54 -97
-264 -126 -322 -27 -52 -103 -130 -127 -130 -32 0 -49 89 -33 178 14 80 89
254 132 307 49 59 104 87 134 67z m1137 -37 c-3 -9 -8 -14 -10 -11 -3 3 -2 9
2 15 9 16 15 13 8 -4z m-13 -55 c0 -5 -5 -10 -11 -10 -5 0 -7 5 -4 10 3 6 8
10 11 10 2 0 4 -4 4 -10z m33 -25 c-3 -9 -8 -14 -10 -11 -3 3 -2 9 2 15 9 16
15 13 8 -4z m-33 -5 c0 -5 -2 -10 -4 -10 -3 0 -8 5 -11 10 -3 6 -1 10 4 10 6
0 11 -4 11 -10z m2 -102 c-6 -6 -7 0 -4 19 5 21 7 23 10 9 2 -10 0 -22 -6 -28z
m-29 -83 c-3 -9 -8 -14 -10 -11 -3 3 -2 9 2 15 9 16 15 13 8 -4z"/>
<path d="M8528 2004 c-26 -8 -50 -19 -53 -24 -8 -12 -11 -13 55 5 64 17 163
20 191 5 15 -8 19 -7 19 3 0 29 -132 36 -212 11z"/>
<path d="M8430 1960 c-8 -5 -10 -10 -5 -10 6 0 17 5 25 10 8 5 11 10 5 10 -5
0 -17 -5 -25 -10z"/>
<path d="M5514 1948 c4 -20 26 -21 26 -1 0 14 -2 15 -9 4 -6 -9 -10 -10 -14
-2 -4 8 -5 8 -3 -1z"/>
<path d="M8369 1903 c-13 -16 -12 -17 4 -4 16 13 21 21 13 21 -2 0 -10 -8 -17
-17z"/>
<path d="M3361 1834 c-53 -45 -33 -104 35 -104 63 0 99 74 56 113 -26 24 -56
21 -91 -9z"/>
<path d="M5153 1741 c-1 -38 1 -50 7 -36 11 25 12 82 3 88 -5 3 -9 -21 -10
-52z"/>
<path d="M4394 1583 c-3 -10 -13 -35 -22 -56 l-16 -39 -18 24 c-9 13 -18 28
-18 34 0 6 -8 18 -18 27 -26 23 -88 20 -142 -6 -35 -17 -44 -27 -44 -47 0 -15
-7 -28 -19 -32 -11 -5 -15 -13 -11 -20 5 -10 3 -9 -7 0 -12 11 -10 16 10 33
13 11 21 23 17 27 -9 9 -95 -81 -128 -134 -59 -93 -87 -288 -52 -357 25 -49
44 -66 80 -73 50 -9 74 3 141 75 53 55 63 62 63 43 0 -12 -15 -53 -34 -91
l-35 -68 -78 -27 c-188 -66 -453 -269 -557 -428 -28 -43 -37 -88 -25 -132 16
-61 44 -86 93 -85 38 1 39 1 13 9 -53 16 -89 66 -89 126 0 42 43 122 91 167
32 31 158 122 332 239 57 38 197 103 206 95 9 -10 -31 -125 -78 -226 -27 -57
-41 -97 -32 -90 15 13 15 12 0 -16 -8 -16 -23 -39 -32 -50 -16 -19 -16 -19 -5
5 9 22 9 22 -2 6 -31 -47 -95 -109 -132 -128 -38 -20 -103 -78 -86 -78 4 0 13
7 21 16 8 10 23 14 41 12 23 -4 27 -1 23 12 -5 17 22 29 99 45 51 11 131 105
190 223 49 99 112 278 151 431 9 35 29 96 45 136 16 41 39 111 50 157 12 46
35 118 52 161 17 42 29 79 27 81 -2 2 -16 6 -32 10 -21 5 -29 2 -33 -11z m-94
-18 c7 -9 8 -15 2 -15 -5 0 -12 7 -16 15 -3 8 -4 15 -2 15 2 0 9 -7 16 -15z
m0 -35 c18 -34 11 -116 -20 -211 -40 -122 -80 -195 -146 -263 -44 -47 -59 -57
-81 -54 -53 6 -66 77 -36 203 9 39 16 84 16 100 0 17 2 24 5 16 2 -7 17 18 33
55 64 153 186 235 229 154z m-138 6 c7 4 8 2 4 -5 -9 -13 -26 -5 -25 12 0 9 2
8 6 -1 2 -6 10 -9 15 -6z m-97 -147 c-14 -30 -22 -43 -18 -29 4 14 7 38 7 53
-1 19 2 24 7 16 6 -10 9 -9 15 4 3 10 8 16 10 14 2 -2 -7 -28 -21 -58z"/>
<path d="M6144 1576 c-54 -25 -128 -102 -119 -124 3 -10 0 -12 -10 -8 -35 13
-104 -138 -112 -249 -7 -96 9 -150 62 -202 39 -40 47 -43 94 -43 31 0 66 8 89
19 43 22 111 90 141 141 l21 35 0 -34 c0 -57 22 -110 58 -143 31 -26 40 -29
75 -24 59 10 74 21 118 88 l39 61 0 -41 c0 -45 15 -93 33 -104 37 -24 102 1
149 57 20 23 81 135 74 135 -2 0 -24 -28 -49 -62 -25 -35 -55 -72 -67 -83 -22
-20 -22 -20 -37 0 -19 26 -12 96 20 195 14 41 41 125 60 185 19 61 42 127 51
147 24 57 21 68 -19 68 -27 0 -35 -4 -35 -17 0 -15 -2 -16 -10 -3 -7 11 -10 6
-10 -22 0 -54 -12 -53 -43 3 -24 42 -33 49 -58 49 -112 0 -270 -169 -326 -348
-28 -91 -57 -141 -123 -208 -31 -32 -51 -44 -74 -45 -91 -3 -119 12 -135 75
-12 51 -14 116 -3 132 4 5 41 22 83 37 105 38 197 115 223 186 21 59 16 105
-15 145 -26 34 -76 34 -145 2z m100 -12 c22 -21 20 -87 -3 -132 -24 -47 -124
-143 -179 -171 -52 -27 -52 -27 -52 7 0 27 70 185 102 232 17 24 93 80 109 80
4 0 15 -7 23 -16z m326 -14 c0 -5 -6 -10 -13 -10 -8 0 -19 -11 -25 -25 -6 -14
-17 -25 -23 -25 -12 0 11 32 40 58 18 15 21 15 21 2z m125 -15 c31 -30 31 -60
1 -138 -14 -34 -38 -98 -55 -142 -17 -44 -46 -105 -66 -135 -19 -30 -35 -59
-35 -66 0 -17 -47 -64 -65 -64 -9 0 -27 11 -40 25 -20 19 -25 34 -25 74 0 69
26 185 55 250 29 62 30 68 10 51 -8 -7 -12 -17 -9 -22 4 -6 -4 -4 -17 3 -13 7
-27 12 -31 11 -12 -3 -10 16 2 23 6 3 13 -1 16 -9 3 -9 11 -16 17 -16 7 0 7 4
-1 12 -19 19 -15 48 7 48 11 0 23 -5 27 -11 4 -8 -1 -9 -17 -5 -13 3 -18 3
-11 0 6 -3 10 -9 7 -14 -3 -4 4 -6 15 -3 10 3 22 14 26 25 8 27 63 88 99 110
40 24 61 23 90 -7z m-605 -20 c-18 -19 -35 -33 -38 -31 -4 4 59 65 67 66 3 0
-10 -16 -29 -35z m386 -53 c-17 -16 -18 -16 -5 5 7 12 15 20 18 17 3 -2 -3
-12 -13 -22z m311 -34 c-3 -8 -6 -5 -6 6 -1 11 2 17 5 13 3 -3 4 -12 1 -19z"/>
<path d="M6948 1589 c-22 -12 -23 -37 -2 -60 15 -16 14 -27 -1 -126 -9 -59
-23 -133 -31 -163 -41 -157 -1 -290 86 -290 57 0 130 59 180 145 13 22 45 70
72 106 52 73 71 117 88 210 20 110 -7 189 -65 189 -31 0 -31 -7 -3 -37 46 -49
31 -219 -29 -323 -14 -25 -42 -74 -62 -109 -45 -79 -105 -141 -137 -141 -44 0
-48 34 -30 250 20 234 21 324 4 338 -22 17 -52 22 -70 11z"/>
<path d="M7642 1587 c-23 -7 -44 -26 -66 -59 -18 -26 -36 -45 -41 -40 -5 4 -5
1 -1 -5 4 -7 3 -13 -1 -13 -5 0 -15 6 -23 13 -12 10 -12 9 -2 -4 6 -9 8 -19 4
-23 -4 -4 -7 -12 -7 -17 0 -5 -4 -9 -10 -8 -5 0 -9 10 -8 22 2 19 1 19 -7 6
-5 -9 -25 -32 -43 -50 -48 -48 -79 -136 -84 -239 -4 -74 -1 -91 19 -129 13
-25 39 -58 59 -74 78 -62 178 -28 315 107 46 46 84 79 84 75 0 -5 -11 -38 -25
-75 -14 -36 -25 -79 -25 -95 0 -25 4 -29 28 -29 15 0 37 7 49 15 25 17 78 148
69 171 -4 9 -2 12 5 8 8 -4 9 1 4 15 -3 11 -3 21 2 21 4 0 9 10 9 23 2 31 10
69 18 88 4 10 6 23 4 30 -3 14 14 66 32 101 5 9 15 46 21 83 11 56 11 68 -2
76 -21 13 -55 11 -94 -5 -35 -15 -50 -42 -17 -32 40 13 44 -6 17 -100 -62
-217 -97 -278 -206 -365 -88 -70 -143 -94 -194 -85 -47 9 -65 49 -65 145 l0
70 48 15 c162 47 282 158 282 257 0 39 -28 87 -62 105 -27 16 -41 16 -86 1z
m77 -58 c24 -68 -31 -165 -131 -232 -69 -46 -118 -59 -118 -30 0 74 83 224
148 268 52 36 87 33 101 -6z m11 -114 c-5 -14 -18 -35 -29 -46 -11 -12 -17
-29 -14 -38 4 -13 3 -13 -5 -2 -7 10 -2 27 20 62 33 54 42 62 28 24z m-13 -67
c-3 -8 -6 -5 -6 6 -1 11 2 17 5 13 3 -3 4 -12 1 -19z"/>
<path d="M8211 1589 c-71 -28 -161 -121 -187 -193 -6 -17 -15 -40 -19 -51 -4
-11 9 7 29 40 21 33 49 73 64 88 33 35 99 70 118 63 31 -12 12 -109 -51 -261
-32 -76 -38 -105 -43 -187 -4 -93 -4 -97 21 -122 48 -48 116 -28 194 57 28 31
57 70 64 86 8 17 20 32 29 34 8 2 2 6 -13 9 -15 3 -26 3 -23 1 8 -8 -73 -110
-109 -137 -58 -44 -92 -26 -82 44 3 23 1 38 -4 34 -5 -3 -9 -3 -9 1 0 12 31
80 44 95 16 18 83 219 92 276 7 44 -3 73 -39 112 -22 24 -38 26 -76 11z m39
-180 c0 -5 -4 -9 -10 -9 -5 0 -10 7 -10 16 0 8 5 12 10 9 6 -3 10 -10 10 -16z
m-5 -49 c3 -5 1 -10 -4 -10 -6 0 -11 5 -11 10 0 6 2 10 4 10 3 0 8 -4 11 -10z
m16 -23 c-10 -9 -11 -8 -5 6 3 10 9 15 12 12 3 -3 0 -11 -7 -18z"/>
<path d="M8716 1588 c3 -5 10 -6 15 -3 13 9 11 12 -6 12 -8 0 -12 -4 -9 -9z"/>
<path d="M8622 1563 c-23 -2 -40 -8 -37 -13 7 -11 71 -3 95 11 13 7 13 8 0 7
-8 -1 -34 -3 -58 -5z"/>
<path d="M8540 1556 c0 -2 7 -7 16 -10 8 -3 12 -2 9 4 -6 10 -25 14 -25 6z"/>
<path d="M4748 1243 c12 -2 32 -2 45 0 12 2 2 4 -23 4 -25 0 -35 -2 -22 -4z"/>
<path d="M4821 1236 c2 -2 18 -6 34 -10 22 -5 26 -4 15 4 -14 9 -59 15 -49 6z"/>
<path d="M4590 1190 c-14 -11 -20 -20 -15 -20 6 0 21 9 35 20 14 11 21 20 15
20 -5 0 -21 -9 -35 -20z"/>
<path d="M8415 1021 c-9 -30 4 -68 30 -85 20 -13 25 -13 35 -2 7 10 8 16 0 21
-5 3 -10 19 -10 35 0 19 -7 33 -19 40 -26 14 -29 13 -36 -9z"/>
<path d="M3705 290 c-3 -6 1 -7 9 -4 18 7 21 14 7 14 -6 0 -13 -4 -16 -10z"/>
<path d="M7440 236 c0 -2 7 -9 15 -16 13 -11 14 -10 9 4 -5 14 -24 23 -24 12z"/>
</g>
</svg>
